solid OBJECT
  facet normal -2.425356e-001 8.326673e-018 9.701425e-001
    outer loop
      vertex 1.242536e+000 1.000000e+000 2.985750e-002
      vertex 3.506201e+000 1.666667e+000 5.957740e-001
      vertex 1.727607e+000 4.000000e+000 1.511253e-001
    endloop
  endfacet
  facet normal -2.425356e-001 0.000000e+000 9.701425e-001
    outer loop
      vertex 3.506201e+000 1.666667e+000 5.957740e-001
      vertex 5.769867e+000 2.333333e+000 1.161690e+000
      vertex 6.093248e+000 4.333333e+000 1.242536e+000
    endloop
  endfacet
  facet normal -2.425356e-001 0.000000e+000 9.701425e-001
    outer loop
      vertex 5.769867e+000 2.333333e+000 1.161690e+000
      vertex 8.033533e+000 3.000000e+000 1.727607e+000
      vertex 6.093248e+000 4.333333e+000 1.242536e+000
    endloop
  endfacet
  facet normal -2.425356e-001 5.620504e-017 9.701425e-001
    outer loop
      vertex 6.093248e+000 4.333333e+000 1.242536e+000
      vertex 4.152963e+000 5.666667e+000 7.574644e-001
      vertex 3.506201e+000 1.666667e+000 5.957740e-001
    endloop
  endfacet
  facet normal -2.425356e-001 0.000000e+000 9.701425e-001
    outer loop
      vertex 4.152963e+000 5.666667e+000 7.574644e-001
      vertex 2.212678e+000 7.000000e+000 2.723931e-001
      vertex 1.727607e+000 4.000000e+000 1.511253e-001
    endloop
  endfacet
  facet normal -2.425356e-001 4.712201e-017 9.701425e-001
    outer loop
      vertex 1.727607e+000 4.000000e+000 1.511253e-001
      vertex 3.506201e+000 1.666667e+000 5.957740e-001
      vertex 4.152963e+000 5.666667e+000 7.574644e-001
    endloop
  endfacet
endsolid OBJECT
