solid OBJECT
  facet normal 0.000000e+000 0.000000e+000 1.000000e+000
    outer loop
      vertex 7.833333e+000 1.583333e+000 0.000000e+000
      vertex 7.833333e+000 6.583333e+000 0.000000e+000
      vertex 4.083333e+000 4.083333e+000 0.000000e+000
    endloop
  endfacet
  facet normal 0.000000e+000 0.000000e+000 1.000000e+000
    outer loop
      vertex 4.083333e+000 4.083333e+000 0.000000e+000
      vertex 3.333333e-001 1.583333e+000 0.000000e+000
      vertex 7.833333e+000 1.583333e+000 0.000000e+000
    endloop
  endfacet
endsolid OBJECT
